HIERARCHY
ROOT newVegas:Hips
{
	OFFSET 0.000000 96.479958 0.000000
	CHANNELS 6 Xposition Yposition Zposition Xrotation Yrotation Zrotation
	JOINT newVegas:Pelvis
	{
		OFFSET 0.000000 0.000000 0.000000
		CHANNELS 3 Xrotation Yrotation Zrotation
		JOINT newVegas:LeftUpLeg
		{
			OFFSET 18.735201 -5.666702 -4.541200
			CHANNELS 3 Xrotation Yrotation Zrotation
			JOINT newVegas:LeftLeg
			{
				OFFSET -0.021200 -31.938179 0.493100
				CHANNELS 3 Xrotation Yrotation Zrotation
				JOINT newVegas:LeftFoot
				{
					OFFSET 0.021200 -31.938179 -4.336299
					CHANNELS 3 Xrotation Yrotation Zrotation
					JOINT newVegas:LeftToeBase
					{
						OFFSET 0.943001 -26.722000 15.023500
						CHANNELS 3 Xrotation Yrotation Zrotation
						End Site
						{
							OFFSET 0.000000 30.670183 0.000000
						}
					}
				}
				JOINT newVegas:Left_PantLeg
				{
					OFFSET 0.663870 -9.044666 -1.108900
					CHANNELS 3 Xrotation Yrotation Zrotation
					End Site
					{
						OFFSET 1.415995 20.635357 0.000000
					}
				}
			}
		}
		JOINT newVegas:RightUpLeg
		{
			OFFSET -18.735201 -5.666702 -4.541200
			CHANNELS 3 Xrotation Yrotation Zrotation
			JOINT newVegas:RightLeg
			{
				OFFSET 0.018946 -31.938133 0.493100
				CHANNELS 3 Xrotation Yrotation Zrotation
				JOINT newVegas:RightFoot
				{
					OFFSET -0.018946 -31.938126 -4.336299
					CHANNELS 3 Xrotation Yrotation Zrotation
					JOINT newVegas:RightToeBase
					{
						OFFSET -0.943001 -26.722004 15.023500
						CHANNELS 3 Xrotation Yrotation Zrotation
						End Site
						{
							OFFSET 0.000000 30.670187 0.000000
						}
					}
				}
				JOINT newVegas:Right_PantLeg
				{
					OFFSET -0.661674 -9.044716 -1.108900
					CHANNELS 3 Xrotation Yrotation Zrotation
					End Site
					{
						OFFSET -1.415958 20.635269 0.000000
					}
				}
			}
		}
	}
	JOINT newVegas:Spine
	{
		OFFSET 0.000000 10.199997 -0.299500
		CHANNELS 3 Xrotation Yrotation Zrotation
		JOINT newVegas:Spine1
		{
			OFFSET 0.000000 11.900002 -1.516600
			CHANNELS 3 Xrotation Yrotation Zrotation
			JOINT newVegas:Spine2
			{
				OFFSET 0.000000 13.600006 -2.842500
				CHANNELS 3 Xrotation Yrotation Zrotation
				JOINT newVegas:Neck
				{
					OFFSET 0.000000 9.624100 -2.890100
					CHANNELS 3 Xrotation Yrotation Zrotation
					JOINT newVegas:Head
					{
						OFFSET 0.000000 14.068802 -1.351900
						CHANNELS 3 Xrotation Yrotation Zrotation
						JOINT newVegas:Hair_Back
						{
							OFFSET 0.000000 3.231903 -17.524799
							CHANNELS 3 Xrotation Yrotation Zrotation
							End Site
							{
								OFFSET 0.000000 19.849884 0.000000
							}
						}
						JOINT newVegas:Hair_Front
						{
							OFFSET 0.000000 31.260406 4.573800
							CHANNELS 3 Xrotation Yrotation Zrotation
							JOINT newVegas:Hair_Front1
							{
								OFFSET 0.000000 2.284103 11.993300
								CHANNELS 3 Xrotation Yrotation Zrotation
								JOINT newVegas:Hair_Front2
								{
									OFFSET 0.000000 2.284103 11.993300
									CHANNELS 3 Xrotation Yrotation Zrotation
									End Site
									{
										OFFSET 0.000000 12.208862 0.000000
									}
								}
							}
						}
						JOINT newVegas:Jowel
						{
							OFFSET 0.000000 -7.458206 6.864100
							CHANNELS 3 Xrotation Yrotation Zrotation
							End Site
							{
								OFFSET 0.000000 19.849884 0.000000
							}
						}
					}
				}
				JOINT newVegas:LeftShoulder
				{
					OFFSET 15.263000 10.923401 -0.547700
					CHANNELS 3 Xrotation Yrotation Zrotation
					JOINT newVegas:LeftArm
					{
						OFFSET 25.438599 -2.830597 -13.032500
						CHANNELS 3 Xrotation Yrotation Zrotation
						JOINT newVegas:LeftForeArm
						{
							OFFSET 29.960503 0.000000 0.000000
							CHANNELS 3 Xrotation Yrotation Zrotation
							JOINT newVegas:LeftHand
							{
								OFFSET 27.849251 0.000000 0.000000
								CHANNELS 3 Xrotation Yrotation Zrotation
								JOINT newVegas:LeftHandThumb1
								{
									OFFSET 4.487587 -3.305161 6.305391
									CHANNELS 3 Xrotation Yrotation Zrotation
									JOINT newVegas:LeftHandThumb2
									{
										OFFSET 5.480453 -3.164139 3.164143
										CHANNELS 3 Xrotation Yrotation Zrotation
										JOINT newVegas:LeftHandThumb3
										{
											OFFSET 5.159721 -2.978973 2.978967
											CHANNELS 3 Xrotation Yrotation Zrotation
											End Site
											{
												OFFSET 2.494507 5.926697 1.738678
											}
										}
									}
								}
								JOINT newVegas:LeftHandIndex1
								{
									OFFSET 18.578728 -0.527832 5.208049
									CHANNELS 3 Xrotation Yrotation Zrotation
									JOINT newVegas:LeftHandIndex2
									{
										OFFSET 3.192009 0.000000 0.000000
										CHANNELS 3 Xrotation Yrotation Zrotation
										JOINT newVegas:LeftHandIndex3
										{
											OFFSET 3.835129 0.000000 0.000000
											CHANNELS 3 Xrotation Yrotation Zrotation
											End Site
											{
												OFFSET -0.034599 3.816971 0.371180
											}
										}
									}
								}
								JOINT newVegas:LeftHandMiddle1
								{
									OFFSET 18.476105 0.000000 0.000000
									CHANNELS 3 Xrotation Yrotation Zrotation
									JOINT newVegas:LeftHandMiddle2
									{
										OFFSET 3.324875 0.000000 0.000000
										CHANNELS 3 Xrotation Yrotation Zrotation
										JOINT newVegas:LeftHandMiddle3
										{
											OFFSET 4.596550 0.000000 0.000000
											CHANNELS 3 Xrotation Yrotation Zrotation
											End Site
											{
												OFFSET 0.057701 4.578827 0.399218
											}
										}
									}
								}
								JOINT newVegas:LeftHandRing1
								{
									OFFSET 17.732719 0.121887 -4.201567
									CHANNELS 3 Xrotation Yrotation Zrotation
									JOINT newVegas:LeftHandRing2
									{
										OFFSET 2.733170 0.000000 0.000000
										CHANNELS 3 Xrotation Yrotation Zrotation
										JOINT newVegas:LeftHandRing3
										{
											OFFSET 3.178268 0.000000 0.000000
											CHANNELS 3 Xrotation Yrotation Zrotation
											End Site
											{
												OFFSET 0.119102 3.170624 0.185394
											}
										}
									}
								}
								JOINT newVegas:LeftHandPinky1
								{
									OFFSET 15.989624 -0.606689 -7.535461
									CHANNELS 3 Xrotation Yrotation Zrotation
									JOINT newVegas:LeftHandPinky2
									{
										OFFSET 2.538986 0.000000 0.000000
										CHANNELS 3 Xrotation Yrotation Zrotation
										JOINT newVegas:LeftHandPinky3
										{
											OFFSET 2.593102 0.000000 0.000000
											CHANNELS 3 Xrotation Yrotation Zrotation
											End Site
											{
												OFFSET -0.150902 2.584198 0.152708
											}
										}
									}
								}
							}
							JOINT newVegas:Left_Sleeve
							{
								OFFSET 0.267448 -0.649796 0.577675
								CHANNELS 3 Xrotation Yrotation Zrotation
								End Site
								{
									OFFSET 0.000000 15.991241 0.000000
								}
							}
							JOINT newVegas:Left_CapeC
							{
								OFFSET 15.715958 -8.608795 -6.935905
								CHANNELS 3 Xrotation Yrotation Zrotation
								JOINT newVegas:Left_CapeC1
								{
									OFFSET 0.000000 -8.688499 0.000000
									CHANNELS 3 Xrotation Yrotation Zrotation
									End Site
									{
										OFFSET 0.000000 8.688499 0.000000
									}
								}
							}
						}
						JOINT newVegas:Left_CapeB
						{
							OFFSET 26.118385 -8.608795 -7.079235
							CHANNELS 3 Xrotation Yrotation Zrotation
							JOINT newVegas:Left_CapeB1
							{
								OFFSET 0.000000 -8.688499 0.000000
								CHANNELS 3 Xrotation Yrotation Zrotation
								End Site
								{
									OFFSET 0.000000 8.688499 0.000000
								}
							}
						}
						JOINT newVegas:Left_CapeA
						{
							OFFSET 5.115639 -8.608795 -10.395809
							CHANNELS 3 Xrotation Yrotation Zrotation
							JOINT newVegas:Left_CapeA1
							{
								OFFSET 0.000000 -8.688499 0.000000
								CHANNELS 3 Xrotation Yrotation Zrotation
								End Site
								{
									OFFSET 0.000000 8.688499 0.000000
								}
							}
						}
					}
				}
				JOINT newVegas:RightShoulder
				{
					OFFSET -15.263000 10.923401 -0.547700
					CHANNELS 3 Xrotation Yrotation Zrotation
					JOINT newVegas:RightArm
					{
						OFFSET -25.438599 -2.830597 -13.032500
						CHANNELS 3 Xrotation Yrotation Zrotation
						JOINT newVegas:RightForeArm
						{
							OFFSET -29.960503 0.000000 0.000000
							CHANNELS 3 Xrotation Yrotation Zrotation
							JOINT newVegas:RightHand
							{
								OFFSET -27.849251 0.000000 0.000000
								CHANNELS 3 Xrotation Yrotation Zrotation
								JOINT newVegas:RightHandThumb1
								{
									OFFSET -4.487587 -3.305161 6.305391
									CHANNELS 3 Xrotation Yrotation Zrotation
									JOINT newVegas:RightHandThumb2
									{
										OFFSET -5.480453 -3.164139 3.164143
										CHANNELS 3 Xrotation Yrotation Zrotation
										JOINT newVegas:RightHandThumb3
										{
											OFFSET -5.159721 -2.978973 2.978967
											CHANNELS 3 Xrotation Yrotation Zrotation
											End Site
											{
												OFFSET -2.494507 5.926697 1.738678
											}
										}
									}
								}
								JOINT newVegas:RightHandIndex1
								{
									OFFSET -18.578728 -0.527832 5.208049
									CHANNELS 3 Xrotation Yrotation Zrotation
									JOINT newVegas:RightHandIndex2
									{
										OFFSET -3.192009 0.000000 0.000000
										CHANNELS 3 Xrotation Yrotation Zrotation
										JOINT newVegas:RightHandIndex3
										{
											OFFSET -3.835129 0.000000 0.000000
											CHANNELS 3 Xrotation Yrotation Zrotation
											End Site
											{
												OFFSET 0.034599 3.816971 0.371180
											}
										}
									}
								}
								JOINT newVegas:RightHandMiddle1
								{
									OFFSET -18.476105 0.000000 0.000000
									CHANNELS 3 Xrotation Yrotation Zrotation
									JOINT newVegas:RightHandMiddle2
									{
										OFFSET -3.324875 0.000000 0.000000
										CHANNELS 3 Xrotation Yrotation Zrotation
										JOINT newVegas:RightHandMiddle3
										{
											OFFSET -4.596550 0.000000 0.000000
											CHANNELS 3 Xrotation Yrotation Zrotation
											End Site
											{
												OFFSET -0.057701 4.578827 0.399218
											}
										}
									}
								}
								JOINT newVegas:RightHandRing1
								{
									OFFSET -17.732719 0.121887 -4.201567
									CHANNELS 3 Xrotation Yrotation Zrotation
									JOINT newVegas:RightHandRing2
									{
										OFFSET -2.733170 0.000000 0.000000
										CHANNELS 3 Xrotation Yrotation Zrotation
										JOINT newVegas:RightHandRing3
										{
											OFFSET -3.178268 0.000000 0.000000
											CHANNELS 3 Xrotation Yrotation Zrotation
											End Site
											{
												OFFSET -0.119102 3.170624 0.185394
											}
										}
									}
								}
								JOINT newVegas:RightHandPinky1
								{
									OFFSET -15.989624 -0.606689 -7.535461
									CHANNELS 3 Xrotation Yrotation Zrotation
									JOINT newVegas:RightHandPinky2
									{
										OFFSET -2.538986 0.000000 0.000000
										CHANNELS 3 Xrotation Yrotation Zrotation
										JOINT newVegas:RightHandPinky3
										{
											OFFSET -2.593102 0.000000 0.000000
											CHANNELS 3 Xrotation Yrotation Zrotation
											End Site
											{
												OFFSET 0.150902 2.584198 0.152708
											}
										}
									}
								}
							}
							JOINT newVegas:Right_CapeC
							{
								OFFSET -15.715958 -8.608795 -6.935905
								CHANNELS 3 Xrotation Yrotation Zrotation
								JOINT newVegas:Right_CapeC1
								{
									OFFSET 0.000000 -8.688499 0.000000
									CHANNELS 3 Xrotation Yrotation Zrotation
									End Site
									{
										OFFSET 0.000000 8.688499 0.000000
									}
								}
							}
							JOINT newVegas:Right_Sleeve
							{
								OFFSET -0.267448 -0.649994 0.577675
								CHANNELS 3 Xrotation Yrotation Zrotation
								End Site
								{
									OFFSET 0.000000 15.991302 0.000000
								}
							}
						}
						JOINT newVegas:Right_CapeA
						{
							OFFSET -5.115540 -8.608795 -10.395824
							CHANNELS 3 Xrotation Yrotation Zrotation
							JOINT newVegas:Right_CapeA1
							{
								OFFSET 0.000000 -8.688499 0.000000
								CHANNELS 3 Xrotation Yrotation Zrotation
								End Site
								{
									OFFSET 0.000000 8.688499 0.000000
								}
							}
						}
						JOINT newVegas:Right_CapeB
						{
							OFFSET -26.118187 -8.608795 -7.079266
							CHANNELS 3 Xrotation Yrotation Zrotation
							JOINT newVegas:Right_CapeB1
							{
								OFFSET 0.000000 -8.688499 0.000000
								CHANNELS 3 Xrotation Yrotation Zrotation
								End Site
								{
									OFFSET 0.000000 8.688499 0.000000
								}
							}
						}
					}
				}
				JOINT newVegas:Left_Collar
				{
					OFFSET 18.625099 8.655502 8.828100
					CHANNELS 3 Xrotation Yrotation Zrotation
					JOINT newVegas:Left_Collar1
					{
						OFFSET 14.783401 10.540405 -1.259500
						CHANNELS 3 Xrotation Yrotation Zrotation
						End Site
						{
							OFFSET 0.000000 18.199875 0.000000
						}
					}
				}
				JOINT newVegas:Collar_Back
				{
					OFFSET 0.000000 15.630707 -20.132601
					CHANNELS 3 Xrotation Yrotation Zrotation
					End Site
					{
						OFFSET 0.000000 22.523010 0.000000
					}
				}
				JOINT newVegas:Left_Peck
				{
					OFFSET 17.239599 -5.132599 25.482599
					CHANNELS 3 Xrotation Yrotation Zrotation
					End Site
					{
						OFFSET 0.000000 22.523010 0.000000
					}
				}
				JOINT newVegas:Right_Peck
				{
					OFFSET -17.239599 -5.132202 25.482599
					CHANNELS 3 Xrotation Yrotation Zrotation
					End Site
					{
						OFFSET 0.000000 22.523010 0.000000
					}
				}
				JOINT newVegas:Right_Collar
				{
					OFFSET -18.625099 8.655792 8.828100
					CHANNELS 3 Xrotation Yrotation Zrotation
					JOINT newVegas:Right_Collar1
					{
						OFFSET -14.783401 10.539993 -1.259500
						CHANNELS 3 Xrotation Yrotation Zrotation
						End Site
						{
							OFFSET 0.000000 18.199631 0.000000
						}
					}
				}
			}
		}
		JOINT newVegas:Belly
		{
			OFFSET 0.000000 -6.540398 9.014299
			CHANNELS 3 Xrotation Yrotation Zrotation
			End Site
			{
				OFFSET 0.000000 11.566666 0.000000
			}
		}
	}
	JOINT newVegas:ElvisFacialAnim_Joint
	{
		OFFSET 1.000000 -95.330101 -8.825800
		CHANNELS 3 Xrotation Yrotation Zrotation
		End Site
		{
			OFFSET 0.000000 35.315800 0.000000
		}
	}
}
MOTION
Frames: 4
Frame Time: 0.033333
-4.200474 17.537209 0.057083 72.097435 -22.797660 -0.956725 -0.000001 -0.000000 0.000000 5.415215 14.897945 15.459025 32.922297 -2.201219 12.971683 -21.634503 2.024093 -7.703393 0.000000 0.000000 0.000000 -0.000001 0.000001 0.000003 -103.381484 1.862748 -42.335278 132.651740 -26.253266 -3.544111 -0.519116 2.737581 5.955656 0.000001 -0.000001 0.000000 -0.000003 -0.000000 -0.000001 19.901964 14.704730 21.946236 -2.555246 1.293690 -2.503206 -2.434896 1.326731 -2.615288 -9.596166 0.883324 -0.715533 -9.596177 0.883322 -0.715531 -0.000000 0.000001 -0.000001 -9.596123 0.883326 -0.715531 -9.596144 0.883299 -0.715526 0.000002 -0.000001 -0.000000 -0.000000 0.000001 0.000000 1.394738 -13.483603 5.569045 -89.659886 14.059091 -46.698799 0.002585 -90.488819 0.002039 39.176329 0.395311 5.849830 -11.272865 -38.559696 23.189230 12.494837 4.494225 -0.877198 0.000004 0.000000 -0.000004 -0.374019 1.380272 -14.385845 0.023613 0.526137 -5.141336 0.000001 -0.000002 -0.000004 0.964265 5.739657 -21.638128 0.090576 1.027306 -10.077844 0.000001 0.000002 0.000001 4.726267 13.630699 -24.641439 0.050763 0.770320 -7.539118 -0.000001 -0.000001 -0.000001 2.194303 17.396159 -7.659572 0.127228 1.215542 -11.949904 -0.000000 -0.000002 -0.000001 0.000002 -0.000000 -0.000001 0.000002 -0.000000 -0.000001 0.000001 -0.000000 -0.000001 0.000001 -0.000001 0.000001 0.000001 0.000000 0.000000 0.000001 -0.000001 0.000001 0.000002 -0.000000 0.000001 0.875547 -0.682585 4.298740 -80.788741 53.648329 70.358154 0.002046 100.847005 -0.002023 -29.297065 8.891860 -7.638894 -7.979164 21.736911 -20.809898 72.467897 -14.462852 18.662934 -0.000000 -0.000004 -0.000001 -0.225557 1.320106 4.300461 -0.000004 -0.000006 0.000004 -0.000001 0.000000 -0.000001 5.947690 -9.619470 48.144665 5.267695 -4.617037 97.541399 0.000001 0.000000 -0.000001 3.777492 -7.098665 60.462399 5.376299 -4.601420 98.892267 -0.000000 -0.000001 0.000000 2.033848 -6.103691 58.672247 1.476700 -3.403755 46.896133 -0.000001 -0.000000 0.000000 -0.000001 -0.000001 -0.000002 0.000000 -0.000001 0.000000 -0.000001 -0.000001 -0.000002 0.000002 -0.000001 -0.000001 0.000003 -0.000001 -0.000001 0.000002 -0.000001 -0.000001 0.000003 -0.000001 -0.000001 -0.000000 0.000000 -0.000001 -0.000000 0.000000 -0.000001 -0.000000 0.000000 -0.000001 -0.000000 0.000000 -0.000001 -0.000000 0.000000 -0.000001 -0.000000 0.000000 -0.000001 -0.000000 0.000000 -0.000001 -0.000000 0.000000 -0.000002 -0.000001 -0.000000 0.000000 
-2.462979 15.237404 0.104591 74.430566 -24.989154 -2.047731 -0.000000 -0.000001 0.000000 7.958407 15.272436 16.752793 31.131753 -4.939249 12.033111 -24.616405 2.005057 -10.701750 -0.000000 0.000001 -0.000001 -0.000001 0.000000 0.000000 -108.576874 0.822112 -41.247909 130.535994 -27.281177 -3.286869 2.306364 2.267786 -2.561938 -0.000000 -0.000000 0.000001 -0.000002 -0.000000 -0.000001 14.716681 14.764849 23.177636 -2.381642 1.356464 -2.295629 -2.257272 1.405721 -2.397130 -9.396212 0.942338 -0.888343 -9.396199 0.942335 -0.888346 0.000002 0.000000 -0.000000 -9.396211 0.942319 -0.888339 -9.396198 0.942370 -0.888349 0.000001 0.000000 0.000000 0.000002 0.000000 -0.000000 1.238808 -10.069337 6.464693 -91.865539 14.108984 -50.316846 0.000298 -89.207653 0.000077 33.586970 -1.040607 3.446520 -6.170052 -40.179892 28.277033 13.446165 5.182636 -0.794404 0.000002 -0.000002 -0.000003 -0.156125 1.358549 -8.680117 0.023925 0.529515 -5.174375 -0.000000 0.000000 0.000000 1.433921 6.476394 -26.439686 0.107863 1.120131 -10.999377 -0.000002 -0.000002 -0.000003 5.695734 13.547746 -30.016752 0.133780 1.246076 -12.254706 0.000001 0.000001 -0.000000 3.398351 15.887783 -14.104053 0.202432 1.528203 -15.090196 -0.000001 -0.000002 0.000000 0.000001 -0.000001 -0.000002 0.000001 -0.000001 -0.000002 0.000000 -0.000001 -0.000002 0.000001 -0.000001 -0.000002 0.000001 -0.000002 -0.000001 0.000001 -0.000001 -0.000002 0.000001 0.000000 -0.000003 1.043460 1.279533 5.306671 -73.496783 52.763922 62.605084 0.000177 105.534189 -0.000176 -24.668140 9.302950 -10.261144 -6.841272 22.329569 -23.475797 72.197996 -14.223746 18.547648 -0.000000 -0.000002 -0.000001 -0.378794 2.580319 5.033782 -0.000005 -0.000002 0.000050 0.000000 -0.000002 0.000000 5.554719 -9.315579 47.762120 5.263216 -4.617641 97.485644 0.000001 -0.000000 0.000001 4.132108 -7.278141 60.987107 5.383534 -4.600287 98.982432 -0.000000 -0.000001 -0.000000 1.626187 -5.851435 58.342629 1.480984 -3.407795 46.968759 -0.000000 0.000003 -0.000001 0.000001 0.000000 0.000003 0.000001 0.000001 0.000004 -0.000000 0.000001 0.000003 0.000000 0.000001 0.000001 0.000001 0.000002 0.000001 0.000000 0.000001 0.000001 0.000001 0.000002 0.000001 -0.000000 -0.000001 -0.000001 -0.000000 -0.000001 -0.000001 -0.000000 -0.000001 -0.000001 -0.000000 -0.000001 -0.000001 -0.000000 -0.000001 -0.000001 -0.000000 -0.000001 -0.000001 -0.000000 -0.000001 -0.000001 -0.000000 -0.000000 -0.000001 -0.000000 -0.000001 0.000000 
-0.568844 13.061127 0.235695 74.637247 -25.723998 -2.342467 -0.000000 0.000002 0.000000 11.836711 15.881112 15.759234 27.988549 -6.800766 10.826196 -25.518982 2.076643 -11.345001 0.000000 0.000000 -0.000001 -0.000001 -0.000002 0.000003 -114.186618 0.232356 -38.977458 127.006507 -27.232348 -2.656574 5.629937 -4.752326 -16.417109 0.000000 -0.000000 -0.000000 -0.000002 -0.000000 -0.000000 12.089057 14.158953 23.201000 -2.334485 1.286024 -1.806595 -2.224793 1.352508 -1.898061 -9.053733 1.007824 -1.030704 -9.053754 1.007829 -1.030712 0.000001 0.000002 -0.000001 -9.053703 1.007833 -1.030713 -9.053715 1.007829 -1.030708 0.000001 0.000000 -0.000000 0.000001 0.000002 -0.000001 1.108095 -7.126792 7.648847 -94.989374 13.881730 -53.158126 -0.000373 -86.029272 -0.000404 25.571632 -2.317481 2.735202 -2.203722 -41.168829 30.835234 14.235839 5.374421 -0.682897 -0.000000 -0.000002 -0.000005 0.019111 1.170395 -2.005954 0.023617 0.526048 -5.140333 -0.000002 -0.000001 0.000000 2.170901 7.264676 -33.873022 0.180835 1.445738 -14.257735 -0.000001 -0.000000 -0.000004 6.544168 13.028475 -36.225793 0.282286 1.798309 -17.841313 -0.000002 -0.000002 -0.000004 4.846016 15.262205 -21.667150 0.318058 1.905828 -18.948070 -0.000001 -0.000005 0.000001 0.000000 -0.000000 -0.000000 0.000000 -0.000000 -0.000000 -0.000000 -0.000000 0.000000 0.000001 -0.000002 0.000001 0.000001 -0.000003 0.000002 0.000001 -0.000002 0.000001 0.000002 -0.000002 0.000000 0.884428 -1.028660 4.460232 -73.256948 53.500062 63.179687 0.000318 106.308780 -0.000314 -19.713041 10.257982 -12.366832 -4.416488 21.773009 -26.991919 71.916517 -13.954226 18.464353 0.000000 -0.000002 -0.000001 -0.674181 4.170421 6.423679 0.000008 0.000008 -0.000006 0.000000 0.000002 0.000000 4.389748 -8.498312 45.273711 5.275784 -4.615961 97.641509 0.000001 -0.000002 -0.000001 4.564431 -7.497617 61.385424 5.378118 -4.601148 98.914738 -0.000000 0.000001 0.000000 0.746141 -5.289204 57.725439 1.508379 -3.433096 47.427676 -0.000001 0.000002 -0.000003 0.000000 -0.000002 -0.000002 0.000000 -0.000001 -0.000001 -0.000002 -0.000001 -0.000001 -0.000002 0.000000 -0.000001 -0.000001 0.000000 -0.000001 -0.000002 0.000000 -0.000001 -0.000001 -0.000000 -0.000001 0.000000 0.000000 -0.000000 0.000000 0.000000 -0.000000 0.000000 0.000000 -0.000000 0.000000 0.000000 -0.000000 0.000000 0.000000 -0.000000 0.000000 0.000000 -0.000000 0.000000 0.000000 -0.000000 -0.000000 -0.000001 -0.000001 -0.000000 0.000002 0.000000 
1.041674 11.214005 0.191315 72.413918 -25.685995 -2.735596 0.000001 -0.000001 0.000000 18.621640 15.652671 12.815057 23.340671 -7.483589 9.791176 -25.878076 2.296764 -9.651996 0.000000 0.000000 -0.000000 -0.000001 0.000000 0.000004 -113.914093 4.885528 -36.251123 123.300938 -24.781706 -1.650572 10.101743 -12.110355 -22.372696 0.000000 -0.000000 -0.000000 0.000000 -0.000001 -0.000001 13.127547 13.890075 22.520368 -2.737031 1.161493 -1.359014 -2.644526 1.258127 -1.453271 -8.748179 1.046415 -1.036053 -8.748147 1.046418 -1.036051 -0.000001 -0.000000 -0.000000 -8.748147 1.046423 -1.036050 -8.748144 1.046393 -1.036049 -0.000003 -0.000002 0.000001 -0.000001 -0.000000 -0.000000 1.118362 -6.026575 8.777218 -99.076354 12.366717 -53.126051 -0.000234 -82.273030 -0.000205 15.035137 -3.075177 3.571395 0.355391 -41.339532 30.905257 14.797325 5.025070 -0.509026 -0.000002 0.000000 -0.000001 0.189338 0.676794 4.977240 0.021905 0.506750 -4.951307 -0.000003 -0.000001 -0.000000 3.033637 7.922907 -41.363629 0.302474 1.859773 -18.473056 -0.000001 -0.000001 -0.000002 7.180644 12.354119 -42.416591 0.497868 2.365272 -23.770320 -0.000003 0.000001 0.000001 6.378306 14.964354 -29.328586 0.457801 2.272183 -22.779704 -0.000000 -0.000005 -0.000002 0.000000 0.000000 -0.000000 0.000000 0.000000 -0.000000 -0.000000 0.000000 0.000000 0.000001 0.000003 0.000000 0.000001 0.000002 0.000000 0.000001 0.000003 0.000000 0.000001 0.000003 -0.000000 0.266331 -7.246367 2.511203 -80.469676 56.764019 71.550924 0.000541 103.154305 -0.000522 -15.204018 12.094977 -16.177416 -1.783008 20.450840 -30.387522 71.514444 -13.558264 18.207269 -0.000000 0.000000 0.000001 -1.280300 6.265553 8.883035 0.000002 -0.000003 0.000003 -0.000001 -0.000002 -0.000000 2.818811 -7.053193 43.368426 5.288051 -4.614314 97.794054 0.000002 -0.000001 0.000002 4.729705 -7.541780 62.312089 5.362264 -4.603584 98.717469 0.000002 0.000001 -0.000000 -0.429165 -4.567295 57.993285 1.520501 -3.444205 47.630140 0.000001 0.000003 0.000003 0.000002 -0.000001 -0.000000 0.000002 -0.000001 -0.000000 0.000002 -0.000001 -0.000000 0.000000 -0.000001 -0.000000 0.000000 -0.000001 -0.000000 0.000000 -0.000001 -0.000000 0.000001 -0.000001 -0.000000 0.000000 0.000000 -0.000001 0.000000 0.000000 -0.000001 0.000000 0.000000 -0.000001 0.000000 0.000000 -0.000001 0.000000 0.000000 -0.000001 0.000000 0.000000 -0.000001 0.000000 0.000000 -0.000001 -0.000000 -0.000001 -0.000001 0.000001 -0.000001 0.000000 
